Coordinates
version=1
nRows=24
nColumns=24
inDegrees=yes

Units are S.I. units (second, meters, Newtons, ...)
Angles are in degrees.

endheader
time	pelvis_tilt	pelvis_list	pelvis_rotation	pelvis_tx	pelvis_ty	pelvis_tz	hip_flexion_r	hip_adduction_r	hip_rotation_r	knee_angle_r	ankle_angle_r	subtalar_angle_r	mtp_angle_r	hip_flexion_l	hip_adduction_l	hip_rotation_l	knee_angle_l	ankle_angle_l	subtalar_angle_l	mtp_angle_l	lumbar_extension	lumbar_bending	lumbar_rotation
      0.84133333	      1.80184930	      1.07889425	     -1.37592757	     -0.24455509	      1.02285214	      0.37041849	     -3.73026105	      1.33815627	      0.33174463	    -15.05891826	     11.87544931	     -5.40952420	      0.85609453	     18.99594403	      2.23445003	     -2.31377767	    -47.69665178	      6.56544757	     -9.96861157	     -0.36951114	    -14.12999139	      5.28162518	      3.68113187
      0.84550000	      1.76015188	      1.12908602	     -1.36400806	     -0.23954713	      1.02326341	      0.37043903	     -4.12921414	      1.27420499	      0.29096641	    -14.73803059	     11.60568622	     -5.42365662	      0.88077521	     19.15322331	      2.35630291	     -2.23343082	    -46.29983828	      6.74059815	     -9.94703596	     -0.41436929	    -14.12250981	      5.19626292	      3.74502541
      0.84966667	      1.76704219	      1.15860043	     -1.33855508	     -0.23453181	      1.02370410	      0.37043945	     -4.60206843	      1.23576413	      0.26872809	    -14.37182660	     11.34960783	     -5.48723415	      0.93622000	     19.24050612	      2.46294345	     -2.13181598	    -44.86694006	      6.84723138	     -9.97929015	     -0.49289226	    -14.18150586	      5.13823372	      3.82289947
      0.85383333	      1.71253840	      1.19007976	     -1.31468746	     -0.22952704	      1.02401452	      0.37042816	     -4.96843741	      1.19032941	      0.19145232	    -14.09067477	     11.06467517	     -5.48689516	      0.97235396	     19.38179294	      2.56726848	     -2.03097162	    -43.40783757	      6.93514357	     -9.93818463	     -0.53958935	    -14.14600722	      5.07760739	      3.86197471
      0.85800000	      1.69708339	      1.22828588	     -1.27965108	     -0.22449590	      1.02436745	      0.37039617	     -5.40400235	      1.14016475	      0.13680367	    -13.75375674	     10.81262866	     -5.52478933	      1.04494192	     19.45240345	      2.69054388	     -1.90004420	    -41.89178516	      6.92970268	    -10.00698729	     -0.61736838	    -14.17941927	      5.02035165	      3.90113046
      0.86216667	      1.66622133	      1.25848023	     -1.24158377	     -0.21947299	      1.02466131	      0.37036151	     -5.79611962	      1.09692360	      0.03889105	    -13.47360065	     10.52410058	     -5.52215081	      1.10442293	     19.52447386	      2.80038292	     -1.76941895	    -40.34784673	      6.90779683	     -9.99659798	     -0.67466869	    -14.17321919	      4.95679640	      3.92189153
      0.86633333	      1.63014777	      1.28934425	     -1.19934654	     -0.21441920	      1.02489637	      0.37029817	     -6.19448260	      1.05215060	     -0.05413028	    -13.17170225	     10.29023144	     -5.52508426	      1.19855904	     19.58224577	      2.91391771	     -1.63494986	    -38.77156461	      6.82406599	    -10.07182716	     -0.75056655	    -14.17570722	      4.92219555	      3.93663982
      0.87050000	      1.55094464	      1.30797368	     -1.15739587	     -0.20936232	      1.02504492	      0.37024561	     -6.51494280	      1.01996201	     -0.18830590	    -12.93665086	     10.00850544	     -5.50687913	      1.25474794	     19.67267149	      3.00078725	     -1.52247474	    -37.17558005	      6.73787105	    -10.02824353	     -0.79411981	    -14.09679854	      4.88467120	      3.94779889
      0.87466667	      1.52623769	      1.33173152	     -1.09926100	     -0.20432140	      1.02522932	      0.37015954	     -6.91630434	      0.98715777	     -0.28893281	    -12.65574169	      9.76106862	     -5.51105133	      1.35603870	     19.67622932	      3.11759591	     -1.33315105	    -35.52520974	      6.55508415	    -10.13155448	     -0.86027651	    -14.13649473	      4.84911599	      3.93792930
      0.87883333	      1.47466590	      1.34267287	     -1.04561775	     -0.19923927	      1.02534637	      0.37007988	     -7.27526555	      0.96704801	     -0.41022777	    -12.40820291	      9.52162644	     -5.49360795	      1.48141227	     19.68885773	      3.20800359	     -1.17217727	    -33.85102817	      6.35531605	    -10.19465249	     -0.92849127	    -14.09899907	      4.81967463	      3.92443964
      0.88300000	      1.42619776	      1.35487258	     -0.99177518	     -0.19414570	      1.02543371	      0.36999981	     -7.63109570	      0.94566834	     -0.54621148	    -12.17449960	      9.27127143	     -5.47529770	      1.61707798	     19.67892829	      3.29451873	     -1.02221989	    -32.14966289	      6.12849284	    -10.23617274	     -0.99242457	    -14.07426717	      4.79565393	      3.90869579
      0.88716667	      1.35130997	      1.35759542	     -0.93680137	     -0.18903444	      1.02544282	      0.36990093	     -7.94967162	      0.93360601	     -0.69185014	    -11.95997459	      9.01314724	     -5.45889852	      1.74797346	     19.68347095	      3.36444968	     -0.89244764	    -30.43624174	      5.88541941	    -10.24493633	     -1.04618043	    -14.02018074	      4.79195003	      3.89491629
      0.89133333	      1.26829377	      1.38596596	     -0.86793410	     -0.18389520	      1.02538397	      0.36972654	     -8.22658284	      0.88286175	     -0.94089668	    -11.82888113	      8.88553236	     -5.23769667	      3.36225684	     19.66250514	      3.48647338	     -0.68117681	    -28.66810536	      5.56801699	    -10.41681036	     -1.46949649	    -13.92462532	      4.76045933	      3.78962911
      0.89550000	      1.25835207	      1.36198661	     -0.82770873	     -0.17874947	      1.02541127	      0.36970009	     -8.62965636	      0.91065086	     -1.00067205	    -11.58287716	      8.55667961	     -5.36360883	      3.46067004	     19.55939095	      3.50559407	     -0.60045759	    -26.92091245	      5.30135954	    -10.32838215	     -1.49480699	    -13.95490973	      4.76255423	      3.83797799
      0.89966667	      1.16597725	      1.33332079	     -0.77565627	     -0.17358849	      1.02525528	      0.36961407	     -8.91132365	      0.93805292	     -1.11849457	    -11.41598902	      8.31468962	     -5.37322610	      3.58488374	     19.53340560	      3.53221095	     -0.47737429	    -25.17013917	      4.99738539	    -10.32307859	     -1.51598360	    -13.87469271	      4.78019461	      3.82419966
      0.90383333	      1.11003859	      1.31976988	     -0.73119201	     -0.16839104	      1.02512160	      0.36952244	     -9.22427299	      0.94533962	     -1.25444315	    -11.26969874	      8.09793559	     -5.33971740	      3.72747336	     19.44136622	      3.57220740	     -0.36782200	    -23.39077587	      4.67649392	    -10.30881822	     -1.53119396	    -13.83397652	      4.78488620	      3.80467931
      0.90800000	      1.05185609	      1.29347327	     -0.69088580	     -0.16316639	      1.02493444	      0.36942583	     -9.52507340	      0.96475497	     -1.39303805	    -11.14716989	      7.89005177	     -5.29564038	      3.89478254	     19.33981410	      3.59524706	     -0.27371897	    -21.61632920	      4.34848523	    -10.28791211	     -1.53898621	    -13.78147073	      4.79924617	      3.79111593
      0.91216667	      0.99898926	      1.25794814	     -0.64607803	     -0.15791120	      1.02471773	      0.36931063	     -9.83574657	      0.99524015	     -1.52313215	    -11.01916770	      7.70429272	     -5.24472558	      4.12446318	     19.21920380	      3.61020956	     -0.17468910	    -19.84768895	      4.01380661	    -10.26589875	     -1.53581050	    -13.73661614	      4.83934239	      3.78186225
      0.91633333	      0.93670841	      1.21914014	     -0.62913635	     -0.15265647	      1.02442309	      0.36923835	    -10.09642466	      1.02371371	     -1.64551975	    -10.97526140	      7.49832907	     -5.20560285	      4.33156105	     19.10534875	      3.60610974	     -0.13421790	    -18.10754729	      3.71944037	    -10.16567878	     -1.52459310	    -13.68537350	      4.85980119	      3.77673845
      0.92050000	      0.86527743	      1.15428989	     -0.60980429	     -0.14737693	      1.02407783	      0.36915481	    -10.34987246	      1.08202769	     -1.74525319	    -10.92613738	      7.29999834	     -5.17579851	      4.55792225	     18.99908409	      3.57559200	     -0.09328702	    -16.40469216	      3.43917976	    -10.05239935	     -1.50349120	    -13.62081466	      4.92010576	      3.78292498
      0.92466667	      0.80869495	      1.10317131	     -0.60296086	     -0.14205579	      1.02370095	      0.36907779	    -10.60338515	      1.12044408	     -1.85414719	    -10.91684687	      7.13806771	     -5.11149953	      4.79294534	     18.86749620	      3.55499950	     -0.08632177	    -14.73011172	      3.17888971	     -9.90673778	     -1.47459710	    -13.56658404	      4.96071138	      3.79570927
      0.92883333	      0.76918690	      1.03674551	     -0.60015879	     -0.13671714	      1.02330218	      0.36899195	    -10.86948119	      1.17337089	     -1.95046965	    -10.91981040	      6.97142343	     -5.05684200	      5.05815938	     18.71573314	      3.51960758	     -0.08275628	    -13.10328558	      2.94759550	     -9.74186780	     -1.43426244	    -13.53622057	      5.02099606	      3.81591076
      0.93300000	      0.71688361	      0.95559055	     -0.60996281	     -0.13135514	      1.02284002	      0.36892300	    -11.10542732	      1.23954892	     -2.03159934	    -10.95922293	      6.81505171	     -4.99780274	      5.35762431	     18.58167907	      3.46487087	     -0.10340167	    -11.54148104	      2.74677087	     -9.54579708	     -1.38073719	    -13.48391897	      5.08914566	      3.84744382
      0.93716667	      0.67157365	      0.88053427	     -0.62979833	     -0.12596888	      1.02233943	      0.36885283	    -11.33171354	      1.29365863	     -2.11201576	    -11.03770905	      6.67925207	     -4.92274521	      5.72278953	     18.43994925	      3.41626276	     -0.13575072	    -10.04047999	      2.58133370	     -9.33771019	     -1.30913765	    -13.44269051	      5.15252403	      3.88982764
